# xmcd CD database file
#
# Track frame offsets:
#	150
#	35242
#	57174
#	84123
#	110108
#	136175
#	163099
#	201120
#	225863
#	250122
#	272740
#	304615
#
# Disc length: 4557 seconds
#
# Revision: 0
# Processed by: cddbd v1.5.2PL0 Copyright (c) Steve Scherf et al.
# Submitted via: CDex 1.51
#
DISCID=9911cb0c
DTITLE=Rory Gallagher - Live In Montreux
DYEAR=1900
DGENRE=Blues
TTITLE0=Laundromat  (1975)
TTITLE1=Tore down  (1975)
TTITLE2=I Take What I Want  (1977)
TTITLE3=Bought and Sold  (1977)
TTITLE4=Do You Read Me  (1977)
TTITLE5=Last Of The Independents  (1979)
TTITLE6=Off The Handle  (1979)
TTITLE7=Mississippi Sheiks  (1979)
TTITLE8=Out On The Western Plain  (1979)
TTITLE9=Too Much Alcohol  (1979)
TTITLE10=Shin kicker  (1985)
TTITLE11=Philby (1985)
EXTD=
EXTT0=
EXTT1=
EXTT2=
EXTT3=
EXTT4=
EXTT5=
EXTT6=
EXTT7=
EXTT8=
EXTT9=
EXTT10=
EXTT11=
PLAYORDER=
